#!OML:ASF H:\Punching\Project 1\Capture day 1\Session 1\female.ASF
:FULLY-SPECIFIED
:DEGREES
1148
root 0.169899 15.5912 6.6813 11.1919 -9.98848 -1.9747
lowerback -0.231897 -1.14676 6.56173
upperback -5.13835 -1.35015 0.496303
thorax -5.36427 -0.96227 -3.0933
lowerneck -2.90181 10.5944 17.2202
upperneck 26.1064 16.4896 -13.6753
head 11.5962 8.02576 -5.89241
rclavicle -4.72051e-014 -1.19271e-015
rhumerus -2.95784 35.7136 -89.5681
rradius 99.322
rwrist -30.1876
rhand -15.4143 -10.0865
rfingers 7.12502
rthumb 10.7652 -39.7906
lclavicle -4.72051e-014 -1.19271e-015
lhumerus -8.65552 -32.9329 78.5065
lradius 99.9868
lwrist 40.1054
lhand -4.23972 34.3285
lfingers 7.12502
lthumb 21.5237 63.1526
rfemur -11.0638 3.94527 19.6346
rtibia 24.7403
rfoot -21.7107 -15.2077
rtoes -6.92471
lfemur -33.1582 4.97769 -8.70929
ltibia 45.2188
lfoot -11.2425 9.71921
ltoes -8.1161
1149
root 0.200273 15.5887 6.73632 11.2601 -10.0399 -1.96832
lowerback -0.123796 -1.19762 6.47969
upperback -5.12392 -1.41131 0.526508
thorax -5.41321 -0.989159 -3.01077
lowerneck -2.94935 10.644 17.2245
upperneck 25.9708 16.5657 -13.7816
head 11.5787 8.04915 -5.91477
rclavicle 1.00712e-014 -4.96962e-015
rhumerus -1.57659 37.0042 -89.2789
rradius 101.417
rwrist -29.8846
rhand -15.6236 -9.62729
rfingers 7.12502
rthumb 10.5632 -39.3418
lclavicle 1.00712e-014 -4.96962e-015
lhumerus -7.28697 -34.2975 78.1457
lradius 101.305
lwrist 40.6034
lhand -4.2231 34.2547
lfingers 7.12502
lthumb 21.5397 63.0769
rfemur -10.8157 3.98329 19.4756
rtibia 24.4624
rfoot -21.6254 -15.3277
rtoes -7.15089
lfemur -33.4282 4.56 -8.25493
ltibia 43.2762
lfoot -11.0367 10.4605
ltoes -7.72145
1150
root 0.232335 15.5865 6.79405 11.3517 -10.1026 -1.9779
lowerback -0.0426766 -1.24588 6.41426
upperback -5.10938 -1.47074 0.558059
thorax -5.44682 -1.01546 -2.93664
lowerneck -2.97934 10.6976 17.2355
upperneck 25.8009 16.6482 -13.9004
head 11.5477 8.0761 -5.94175
rclavicle -3.65888e-015 4.17448e-015
rhumerus -0.183435 38.2404 -88.9443
rradius 103.469
rwrist -29.5763
rhand -15.7638 -9.25493
rfingers 7.12502
rthumb 10.428 -38.9763
lclavicle -3.65888e-015 4.17448e-015
lhumerus -5.93554 -35.5536 77.7561
lradius 102.659
lwrist 41.2529
lhand -4.28319 34.2466
lfingers 7.12502
lthumb 21.482 63.0755
rfemur -10.5675 4.04495 19.3244
rtibia 24.1489
rfoot -21.5081 -15.4582
rtoes -7.34681
lfemur -33.6758 4.10028 -7.7444
ltibia 41.2723
lfoot -10.7979 11.2602
ltoes -7.37865
1151
root 0.266208 15.5844 6.85452 11.4604 -10.1847 -2.0013
lowerback 0.0339405 -1.28793 6.36565
upperback -5.10382 -1.52166 0.586385
thorax -5.48714 -1.03878 -2.87553
lowerneck -2.99681 10.7526 17.2608
upperneck 25.6186 16.7323 -14.0237
head 11.5119 8.10554 -5.97265
rclavicle -6.08778e-015 2.78299e-015
rhumerus 1.18578 39.4219 -88.577
rradius 105.474
rwrist -29.2959
rhand -15.9095 -8.93833
rfingers 7.12502
rthumb 10.2874 -38.6667
lclavicle -6.08778e-015 2.78299e-015
lhumerus -4.62413 -36.7308 77.3486
lradius 104.036
lwrist 41.9954
lhand -4.43238 34.2806
lfingers 7.12502
lthumb 21.3387 63.1258
rfemur -10.3078 4.13591 19.1767
rtibia 23.7898
rfoot -21.3577 -15.5938
rtoes -7.5223
lfemur -33.8914 3.59864 -7.17691
ltibia 39.2286
lfoot -10.4877 12.1126
ltoes -7.02438
1152
root 0.301979 15.5826 6.9179 11.5834 -10.288 -2.04007
lowerback 0.101066 -1.3225 6.35069
upperback -5.10445 -1.56276 0.600578
thorax -5.52935 -1.05934 -2.84849
lowerneck -3.00283 10.8084 17.3083
upperneck 25.4264 16.8138 -14.1425
head 11.4718 8.13692 -6.00602
rclavicle -5.36097e-015 -5.96354e-016
rhumerus 2.51717 40.5425 -88.2039
rradius 107.423
rwrist -29.0482
rhand -16.0913 -8.64944
rfingers 7.12502
rthumb 10.1121 -38.3865
lclavicle -5.36097e-015 -5.96354e-016
lhumerus -3.36405 -37.8372 76.9206
lradius 105.422
lwrist 42.7567
lhand -4.62891 34.3483
lfingers 7.12502
lthumb 21.1499 63.2146
rfemur -10.0297 4.24971 19.0325
rtibia 23.3805
rfoot -21.18 -15.7226
rtoes -7.68343
lfemur -34.0716 3.05643 -6.54892
ltibia 37.1653
lfoot -10.0473 13.014
ltoes -6.61892
1153
root 0.33978 15.5808 6.98445 11.7175 -10.4118 -2.08677
lowerback 0.155294 -1.35336 6.34203
upperback -5.11216 -1.59945 0.615667
thorax -5.57145 -1.07815 -2.82436
lowerneck -2.98443 10.8647 17.3647
upperneck 25.2238 16.8981 -14.2661
head 11.425 8.17134 -6.04307
rclavicle 2.54382e-014 -8.34896e-015
rhumerus 3.80096 41.6201 -87.8095
rradius 109.32
rwrist -28.8411
rhand -16.3164 -8.39171
rfingers 7.12502
rthumb 9.89493 -38.1392
lclavicle 2.54382e-014 -8.34896e-015
lhumerus -2.16948 -38.8736 76.4973
lradius 106.797
lwrist 43.4575
lhand -4.85495 34.4171
lfingers 7.12502
lthumb 20.9328 63.3076
rfemur -9.7295 4.37193 18.8825
rtibia 22.9177
rfoot -20.9784 -15.8342
rtoes -7.85836
lfemur -34.2127 2.47196 -5.86883
ltibia 35.1008
lfoot -9.43948 13.9664
ltoes -6.10429
1154
root 0.379703 15.5791 7.05407 11.86 -10.5585 -2.13793
lowerback 0.210743 -1.38018 6.34256
upperback -5.13522 -1.63004 0.626485
thorax -5.63049 -1.09531 -2.80975
lowerneck -2.9536 10.9194 17.4277
upperneck 25.0344 16.9791 -14.3771
head 11.3801 8.2066 -6.07785
rclavicle 3.06843e-014 -3.18055e-015
rhumerus 4.99886 42.6493 -87.4211
rradius 111.174
rwrist -28.686
rhand -16.5615 -8.14887
rfingers 7.12502
rthumb 9.65847 -37.9074
lclavicle 3.06843e-014 -3.18055e-015
lhumerus -1.05833 -39.8852 76.0772
lradius 108.152
lwrist 43.9987
lhand -5.10954 34.4555
lfingers 7.12502
lthumb 20.6882 63.3729
rfemur -9.40451 4.49796 18.7216
rtibia 22.4002
rfoot -20.758 -15.9206
rtoes -8.04985
lfemur -34.3139 1.84154 -5.13857
ltibia 33.0531
lfoot -8.65091 14.9769
ltoes -5.4475
1155
root 0.42192 15.5773 7.12744 12.0093 -10.719 -2.18983
lowerback 0.249064 -1.40355 6.35556
upperback -5.16644 -1.65708 0.627967
thorax -5.68891 -1.11174 -2.81225
lowerneck -2.90578 10.9719 17.505
upperneck 24.8519 17.0554 -14.4772
head 11.3343 8.24275 -6.11256
rclavicle 8.83039e-015 1.17283e-014
rhumerus 6.11167 43.6194 -87.0424
rradius 112.982
rwrist -28.5425
rhand -16.8239 -7.9019
rfingers 7.12502
rthumb 9.40524 -37.6721
lclavicle 8.83039e-015 1.17283e-014
lhumerus -0.0252303 -40.8793 75.6546
lradius 109.468
lwrist 44.3628
lhand -5.34816 34.4586
lfingers 7.12502
lthumb 20.4589 63.4007
rfemur -9.05008 4.60659 18.5449
rtibia 21.8303
rfoot -20.531 -15.9725
rtoes -8.26993
lfemur -34.3753 1.15661 -4.36365
ltibia 31.0398
lfoot -7.70648 16.0449
ltoes -4.62549
